<?xml version="1.0" standalone="no"?>
<!DOCTYPE svg PUBLIC "-//W3C//DTD SVG 20010904//EN"
 "http://www.w3.org/TR/2001/REC-SVG-20010904/DTD/svg10.dtd">
<svg version="1.0" xmlns="http://www.w3.org/2000/svg"
 width="700.000000pt" height="700.000000pt" viewBox="0 0 700.000000 700.000000"
 preserveAspectRatio="xMidYMid meet">
<metadata>
Created by potrace 1.14, written by Peter Selinger 2001-2017
</metadata>
<g transform="translate(0.000000,700.000000) scale(0.100000,-0.100000)"
fill="#000000" stroke="none">
<path d="M3328 6885 c-2 -1 -40 -6 -85 -9 -46 -4 -93 -9 -105 -12 -13 -2 -50
-9 -83 -14 -98 -17 -283 -65 -390 -103 -423 -148 -806 -404 -1125 -753 -30
-33 -68 -77 -85 -98 -16 -21 -35 -43 -40 -50 -96 -108 -260 -377 -339 -553
-352 -788 -237 -1705 339 -2713 49 -85 96 -166 106 -180 9 -14 55 -83 101
-155 95 -147 112 -172 256 -369 102 -139 300 -396 312 -406 3 -3 53 -63 110
-135 172 -216 382 -465 559 -665 46 -52 98 -111 115 -130 132 -150 311 -344
380 -412 76 -75 169 -93 254 -49 48 25 177 159 498 520 35 40 126 146 191 224
12 14 67 81 123 149 56 68 109 132 118 143 16 19 145 183 257 325 128 164 372
509 519 735 54 83 107 162 117 177 10 15 19 30 19 33 0 3 12 24 27 48 31 48
40 64 76 128 13 25 36 63 49 85 36 58 189 373 241 494 124 294 216 611 253
875 3 28 8 59 10 70 27 145 20 514 -12 690 -93 515 -327 944 -729 1339 -508
499 -1166 774 -1857 774 -97 0 -178 -1 -180 -3z m457 -449 c34 -7 86 -16 130
-23 77 -12 271 -69 375 -109 204 -80 429 -209 595 -342 157 -126 347 -328 446
-472 24 -36 47 -66 52 -68 4 -2 7 -8 7 -13 0 -5 16 -34 36 -65 79 -123 200
-420 218 -535 3 -20 7 -42 10 -50 5 -13 8 -39 24 -159 13 -110 5 -452 -13
-520 -2 -8 -6 -33 -10 -54 -4 -32 -21 -112 -40 -198 -69 -309 -260 -748 -498
-1148 -141 -237 -408 -630 -601 -885 -154 -203 -504 -639 -599 -745 -13 -14
-75 -86 -139 -160 -64 -74 -150 -171 -191 -215 l-74 -80 -44 49 c-24 26 -57
62 -73 80 -45 49 -354 402 -439 501 l-76 89 77 45 c221 127 413 318 539 536
88 151 167 373 193 540 7 44 14 81 15 82 1 2 49 -22 108 -51 98 -50 249 -106
322 -120 17 -4 41 -9 55 -12 35 -7 75 -12 144 -20 l59 -7 -45 59 c-95 123
-270 271 -400 339 -21 10 -36 20 -35 22 2 1 27 -5 57 -13 30 -8 109 -18 175
-21 127 -6 247 12 395 58 127 39 290 118 416 202 89 59 92 62 71 74 -25 13
-162 49 -222 59 -20 3 -47 8 -59 10 -89 18 -334 23 -426 10 -145 -21 -126 -18
-205 -36 -33 -8 -108 -30 -167 -51 -60 -20 -108 -36 -108 -34 0 1 42 29 93 63
469 311 840 823 1041 1437 40 122 88 307 81 313 -6 7 -263 -163 -285 -187 -3
-4 -23 -20 -45 -36 -152 -113 -351 -304 -540 -520 -135 -154 -343 -466 -465
-697 -72 -138 -80 -147 -55 -63 9 27 17 59 20 70 2 11 9 38 14 60 5 22 12 51
15 65 3 14 7 36 11 50 7 32 14 67 20 105 3 17 8 37 10 45 10 35 45 335 52 445
12 201 5 648 -12 698 -2 6 -6 37 -9 67 -19 199 -75 475 -146 715 -12 39 -23
77 -25 85 -3 15 -58 165 -91 253 -10 26 -21 47 -24 47 -19 0 -177 -481 -206
-630 -3 -14 -10 -45 -15 -70 -19 -83 -18 -75 -43 -225 -9 -49 -18 -115 -22
-145 -3 -30 -7 -66 -10 -80 -19 -117 -26 -624 -11 -790 21 -233 57 -456 103
-645 8 -33 17 -69 19 -80 3 -11 11 -42 19 -68 8 -26 12 -47 10 -47 -2 0 -21
37 -44 83 -97 200 -228 410 -382 615 -112 148 -136 176 -253 301 -137 146
-226 229 -365 340 -125 101 -348 256 -356 248 -3 -3 -1 -22 5 -43 5 -22 13
-52 16 -69 3 -16 7 -34 9 -40 22 -79 33 -116 63 -205 107 -321 271 -630 467
-880 73 -93 108 -133 220 -243 121 -120 211 -194 342 -283 54 -36 101 -68 104
-71 2 -2 -22 8 -53 22 -63 27 -231 79 -293 90 -313 55 -578 41 -837 -42 l-48
-15 58 -42 c200 -145 461 -255 673 -284 83 -11 309 -7 359 7 59 17 63 7 7 -18
-119 -52 -301 -200 -400 -324 -44 -56 -46 -55 74 -42 80 9 83 9 184 35 108 28
173 53 279 106 52 26 87 39 87 31 -1 -46 -69 -246 -116 -339 -98 -193 -298
-382 -490 -464 -35 -15 -66 -25 -68 -23 -90 107 -329 423 -448 590 -564 793
-839 1503 -824 2124 6 211 21 319 70 486 98 337 286 642 565 919 282 280 602
472 962 575 136 40 141 41 299 65 91 15 159 18 330 15 118 -1 229 -6 245 -9z"/>
</g>
</svg>
